<svg xmlns="http://www.w3.org/2000/svg" width="256" height="320" viewBox="0 0 256 320"><defs><radialGradient id="sack" cx="50%" cy="34%" r="70%"><stop stop-color="#d2f75a"/><stop offset="0.5" stop-color="#6baf43"/><stop offset="1" stop-color="#315946"/></radialGradient></defs><ellipse cx="128" cy="286" rx="100" ry="19" fill="#061b13" opacity=".28"/><path d="M64 222L17 263 28 287 84 271M190 223L238 259 227 288 172 270" fill="#295843" stroke="#133528" stroke-width="9"/><path d="M70 163L42 144 20 164 49 199M185 164L214 146 235 168 204 203" fill="#4b8d47" stroke="#183e31" stroke-width="9"/><path d="M44 208Q38 142 88 107Q129 81 173 106Q222 148 213 209L181 269Q131 290 80 268Z" fill="url(#sack)" stroke="#24503b" stroke-width="10"/><path d="M71 118L56 65 97 102 121 66 129 107 162 60 168 105 206 74 185 132" fill="#74bb4b" stroke="#25533b" stroke-width="9"/><path d="M74 170Q93 138 119 170L113 191 85 190ZM138 170Q161 138 183 170L173 191 145 190Z" fill="#163a31" stroke="#b8f05a" stroke-width="7"/><circle cx="99" cy="173" r="8" fill="#f3fc98"/><circle cx="160" cy="173" r="8" fill="#f3fc98"/><path d="M95 210Q130 231 168 210L152 248 112 248Z" fill="#1d4430" stroke="#a5eb6b" stroke-width="6"/><path d="M115 217L124 237 133 216 144 236 153 218" fill="none" stroke="#d7f89e" stroke-width="5"/><circle cx="75" cy="226" r="16" fill="#e2ff5a" opacity=".65"/><circle cx="184" cy="233" r="19" fill="#cbfb47" opacity=".58"/><circle cx="130" cy="131" r="12" fill="#e0ff6b" opacity=".7"/></svg>